# xmcd
#
# Track frame offsets: 
#        150
#        22057
#        43564
#        67850
#        92327
#        123385
#        144610
#        173342
#        193155
#        214267
#
# Disc length: 3161 seconds
#
# Revision: 0
# Processed by: cddbd v1.4PL0 Copyright (c) Steve Scherf et al.
# Submitted via: ExactAudioCopy v0.90b4
#
DISCID=850c570a
DTITLE=Little Boogie Boy - In Case You`ve Got The Blues
DYEAR=2001
DGENRE=Blues
TTITLE0=Everything`s Gonna Be Allright
TTITLE1=Backscratcher
TTITLE2=Ain`t Gonna Worry About Tomorrow
TTITLE3=Little By Little
TTITLE4=Lonesome Feeling
TTITLE5=How Many More Years
TTITLE6=Truckload Of Love
TTITLE7=I`ll Overcome
TTITLE8=Steal Away
TTITLE9=My Baby`s Coming Home
EXTD=
EXTT0=
EXTT1=
EXTT2=
EXTT3=
EXTT4=
EXTT5=
EXTT6=
EXTT7=
EXTT8=
EXTT9=
PLAYORDER=
